<svg width="44" height="44" viewBox="0 0 44 44" fill="none" xmlns="http://www.w3.org/2000/svg">
<rect width="44" height="44" rx="4" fill="#F5F5F7"/>
<path d="M19.87 15.67L16.45 17.75L14.89 15.19C14.32 14.25 14.62 13.01 15.56 12.44C16.5 11.87 17.74 12.17 18.31 13.11L19.87 15.67Z" stroke="#292D32" stroke-width="2" stroke-linecap="round" stroke-linejoin="round"/>
<path d="M21.82 19.16L18.66 21.08C16.82 22.2 16.26 24.46 17.15 26.26L19.2 30.44C19.86 31.79 21.46 32.26 22.74 31.47L29.17 27.56C30.46 26.78 30.77 25.15 29.88 23.94L27.11 20.2C25.91 18.58 23.66 18.04 21.82 19.16Z" stroke="#292D32" stroke-width="2" stroke-linecap="round" stroke-linejoin="round"/>
<path d="M20.7566 15.098L15.632 18.2186L17.7124 21.635L22.837 18.5144L20.7566 15.098Z" stroke="#292D32" stroke-width="2" stroke-linecap="round" stroke-linejoin="round"/>
<path d="M24.31 26.81L25.96 29.52" stroke="#292D32" stroke-width="2" stroke-linecap="round" stroke-linejoin="round"/>
<path d="M21.75 28.37L23.4 31.08" stroke="#292D32" stroke-width="2" stroke-linecap="round" stroke-linejoin="round"/>
<path d="M26.87 25.25L28.52 27.96" stroke="#292D32" stroke-width="2" stroke-linecap="round" stroke-linejoin="round"/>
</svg>
