<svg width="33" height="33" viewBox="0 0 33 33" fill="none" xmlns="http://www.w3.org/2000/svg">
<rect width="33" height="33" rx="8" fill="#230608"/>
<rect width="24" height="24" transform="translate(4.5 4.5)" fill="#230608"/>
<path d="M13.3099 6.5L9.68994 10.13" stroke="white" stroke-width="1.5" stroke-miterlimit="10" stroke-linecap="round" stroke-linejoin="round"/>
<path d="M19.6899 6.5L23.3099 10.13" stroke="white" stroke-width="1.5" stroke-miterlimit="10" stroke-linecap="round" stroke-linejoin="round"/>
<path d="M6.5 12.35C6.5 10.5 7.49 10.35 8.72 10.35H24.28C25.51 10.35 26.5 10.5 26.5 12.35C26.5 14.5 25.51 14.35 24.28 14.35H8.72C7.49 14.35 6.5 14.5 6.5 12.35Z" stroke="white" stroke-width="1.5"/>
<path d="M14.26 18.5V22.05" stroke="white" stroke-width="1.5" stroke-linecap="round"/>
<path d="M18.8601 18.5V22.05" stroke="white" stroke-width="1.5" stroke-linecap="round"/>
<path d="M8 14.5L9.41 23.14C9.73 25.08 10.5 26.5 13.36 26.5H19.39C22.5 26.5 22.96 25.14 23.32 23.26L25 14.5" stroke="white" stroke-width="1.5" stroke-linecap="round"/>
</svg>
