<svg width="40" height="40" viewBox="0 0 40 40" fill="none" xmlns="http://www.w3.org/2000/svg">
<rect width="40" height="40" rx="4" fill="#F5F5F7"/>
<path d="M19.4667 20.35V14.625H11.25V21.95C11.25 22.2224 11.304 22.4921 11.409 22.7435C11.514 22.9949 11.6679 23.2229 11.8617 23.4144C12.0555 23.6058 12.2853 23.7569 12.538 23.8589C12.7906 23.9608 13.0609 24.0116 13.3333 24.0083H16.9417C16.9331 23.8863 16.9331 23.7637 16.9417 23.6417C16.9167 22.275 17.925 21.0667 19.4667 20.35Z" stroke="black" stroke-width="2" stroke-linecap="round" stroke-linejoin="round"/>
<path d="M15.3583 17.9L14.2833 16.8417L13.2167 17.9V19.5167H15.3583V17.9Z" stroke="black" stroke-width="2" stroke-linecap="round" stroke-linejoin="round"/>
<path d="M14.2833 16.8417V14.625" stroke="black" stroke-width="2" stroke-linecap="round" stroke-linejoin="round"/>
<path d="M19.4667 16.7083H21.1333C21.5194 16.7127 21.8882 16.8692 22.1597 17.1438C22.4311 17.4183 22.5834 17.7889 22.5833 18.175V19.6417C21.5072 19.6639 20.4468 19.9049 19.4667 20.35V16.7083Z" stroke="black" stroke-width="2" stroke-linecap="round" stroke-linejoin="round"/>
<path d="M22.5833 19.6417H22.8333C26.1 19.6417 28.75 21.4333 28.75 23.65C28.7677 24.0149 28.6734 24.3765 28.4797 24.6863C28.2861 24.9961 28.0024 25.2393 27.6667 25.3833H18C17.7208 25.2659 17.4767 25.0785 17.2913 24.839C17.1059 24.5996 16.9854 24.3163 16.9417 24.0167C16.9331 23.8946 16.9331 23.7721 16.9417 23.65C16.9417 22.2833 17.95 21.075 19.4917 20.3167C20.4652 19.8826 21.5174 19.6528 22.5833 19.6417Z" stroke="black" stroke-width="2" stroke-linecap="round" stroke-linejoin="round"/>
<path d="M22.275 21.6667C22.3023 21.2734 22.4148 20.8909 22.6048 20.5455C22.7947 20.2002 23.0575 19.9003 23.375 19.6667" stroke="black" stroke-width="2" stroke-linecap="round" stroke-linejoin="round"/>
<path d="M24.4 22C24.4135 21.6161 24.5152 21.2406 24.6973 20.9024C24.8794 20.5642 25.1369 20.2725 25.45 20.05" stroke="black" stroke-width="2" stroke-linecap="round" stroke-linejoin="round"/>
<path d="M20.15 21.9167C20.175 21.5012 20.2874 21.0957 20.4798 20.7267C20.6722 20.3576 20.9404 20.0333 21.2667 19.775" stroke="black" stroke-width="2" stroke-linecap="round" stroke-linejoin="round"/>
</svg>
