<svg width="33" height="33" viewBox="0 0 33 33" fill="none" xmlns="http://www.w3.org/2000/svg">
<rect width="33" height="33" rx="8" fill="#230608"/>
<path d="M15.5 6.5H13.5C8.5 6.5 6.5 8.5 6.5 13.5V19.5C6.5 24.5 8.5 26.5 13.5 26.5H19.5C24.5 26.5 26.5 24.5 26.5 19.5V17.5" stroke="white" stroke-width="1.5" stroke-linecap="round" stroke-linejoin="round"/>
<path d="M20.54 7.52001L12.66 15.4C12.36 15.7 12.06 16.29 12 16.72L11.57 19.73C11.41 20.82 12.18 21.58 13.27 21.43L16.28 21C16.7 20.94 17.29 20.64 17.6 20.34L25.48 12.46C26.84 11.1 27.48 9.52001 25.48 7.52001C23.48 5.52001 21.9 6.16001 20.54 7.52001Z" stroke="white" stroke-width="1.5" stroke-miterlimit="10" stroke-linecap="round" stroke-linejoin="round"/>
<path d="M19.41 8.65002C20.08 11.04 21.95 12.91 24.35 13.59" stroke="white" stroke-width="1.5" stroke-miterlimit="10" stroke-linecap="round" stroke-linejoin="round"/>
</svg>
