<svg width="40" height="40" viewBox="0 0 40 40" fill="none" xmlns="http://www.w3.org/2000/svg">
<rect width="40" height="40" rx="4" fill="#F5F5F7"/>
<g clip-path="url(#clip0_200_210)">
<path d="M17.675 22.3583L24.9333 20.75V12.8917L17.675 11.275C16.9221 11.1978 16.1615 11.2799 15.4424 11.5161C14.7234 11.7523 14.0622 12.1371 13.5017 12.6457C12.9413 13.1543 12.4942 13.7752 12.1895 14.4679C11.8848 15.1607 11.7294 15.9099 11.7333 16.6667V17C11.7342 17.7544 11.8934 18.5002 12.2006 19.1892C12.5078 19.8782 12.9561 20.4951 13.5167 21C14.0444 21.4717 14.6585 21.8367 15.325 22.075C16.0772 22.3443 16.8803 22.4411 17.675 22.3583Z" stroke="black" stroke-width="2" stroke-linecap="round" stroke-linejoin="round"/>
<path d="M24.9333 20.7417V12.8917L28.2667 13.2333V20.4L24.9333 20.7417Z" stroke="black" stroke-width="2" stroke-linecap="round" stroke-linejoin="round"/>
<path d="M14.6833 16.8167C14.6833 16.2909 14.8392 15.7769 15.1313 15.3398C15.4234 14.9026 15.8386 14.5619 16.3244 14.3607C16.8101 14.1595 17.3446 14.1068 17.8603 14.2094C18.3759 14.312 18.8496 14.5652 19.2214 14.9369C19.5932 15.3087 19.8463 15.7824 19.9489 16.298C20.0515 16.8137 19.9988 17.3482 19.7976 17.834C19.5964 18.3197 19.2557 18.7349 18.8186 19.027C18.3814 19.3191 17.8674 19.475 17.3417 19.475C16.6366 19.475 15.9605 19.1949 15.4619 18.6964C14.9634 18.1979 14.6833 17.5217 14.6833 16.8167Z" stroke="black" stroke-width="2" stroke-linecap="round" stroke-linejoin="round"/>
<path d="M15.325 22.075C16.0772 22.3443 16.8803 22.4411 17.675 22.3583L19.3417 21.9833V26.7333C19.3087 27.2469 19.0814 27.7286 18.7061 28.0806C18.3307 28.4326 17.8354 28.6285 17.3208 28.6285C16.8062 28.6285 16.311 28.4326 15.9356 28.0806C15.5603 27.7286 15.333 27.2469 15.3 26.7333L15.325 22.075Z" stroke="black" stroke-width="2" stroke-linecap="round" stroke-linejoin="round"/>
</g>
<defs>
<clipPath id="clip0_200_210">
<rect width="20" height="20" fill="white" transform="translate(10 10)"/>
</clipPath>
</defs>
</svg>
