<svg width="40" height="40" viewBox="0 0 40 40" fill="none" xmlns="http://www.w3.org/2000/svg">
<rect width="40" height="40" rx="4" fill="#F5F5F7"/>
<path d="M25 15.9667C24.95 15.9583 24.8917 15.9583 24.8417 15.9667C23.6917 15.925 22.775 14.9833 22.775 13.8167C22.775 12.625 23.7333 11.6667 24.925 11.6667C26.1167 11.6667 27.075 12.6333 27.075 13.8167C27.0667 14.9833 26.15 15.925 25 15.9667Z" stroke="#292D32" stroke-width="2" stroke-linecap="round" stroke-linejoin="round"/>
<path d="M24.1417 22.0333C25.2833 22.225 26.5417 22.025 27.425 21.4333C28.6 20.65 28.6 19.3667 27.425 18.5833C26.5333 17.9917 25.2583 17.7917 24.1167 17.9917" stroke="#292D32" stroke-width="2" stroke-linecap="round" stroke-linejoin="round"/>
<path d="M14.975 15.9667C15.025 15.9583 15.0833 15.9583 15.1333 15.9667C16.2833 15.925 17.2 14.9833 17.2 13.8167C17.2 12.625 16.2417 11.6667 15.05 11.6667C13.8583 11.6667 12.9 12.6333 12.9 13.8167C12.9083 14.9833 13.825 15.925 14.975 15.9667Z" stroke="#292D32" stroke-width="2" stroke-linecap="round" stroke-linejoin="round"/>
<path d="M15.8333 22.0333C14.6917 22.225 13.4333 22.025 12.55 21.4333C11.375 20.65 11.375 19.3667 12.55 18.5833C13.4417 17.9917 14.7167 17.7917 15.8583 17.9917" stroke="#292D32" stroke-width="2" stroke-linecap="round" stroke-linejoin="round"/>
<path d="M20 22.1917C19.95 22.1833 19.8917 22.1833 19.8417 22.1917C18.6917 22.15 17.775 21.2083 17.775 20.0417C17.775 18.85 18.7333 17.8917 19.925 17.8917C21.1167 17.8917 22.075 18.8583 22.075 20.0417C22.0667 21.2083 21.15 22.1583 20 22.1917Z" stroke="#292D32" stroke-width="2" stroke-linecap="round" stroke-linejoin="round"/>
<path d="M17.575 24.8167C16.4 25.6 16.4 26.8833 17.575 27.6667C18.9083 28.5583 21.0917 28.5583 22.425 27.6667C23.6 26.8833 23.6 25.6 22.425 24.8167C21.1 23.9333 18.9083 23.9333 17.575 24.8167Z" stroke="#230608" stroke-width="2" stroke-linecap="round" stroke-linejoin="round"/>
</svg>
