<svg width="40" height="40" viewBox="0 0 40 40" fill="none" xmlns="http://www.w3.org/2000/svg">
<rect width="40" height="40" rx="4" fill="#F5F5F7"/>
<path d="M12.41 24.75C12.17 27.64 14.35 30 17.25 30H22.04C25.3 30 27.54 27.37 27 24.15C26.43 20.77 23.17 18 19.74 18C16.02 18 12.72 21.04 12.41 24.75Z" stroke="black" stroke-width="2" stroke-linecap="round" stroke-linejoin="round"/>
<path d="M18.47 15.5C19.8507 15.5 20.97 14.3807 20.97 13C20.97 11.6193 19.8507 10.5 18.47 10.5C17.0893 10.5 15.97 11.6193 15.97 13C15.97 14.3807 17.0893 15.5 18.47 15.5Z" stroke="black" stroke-width="2" stroke-linecap="round" stroke-linejoin="round"/>
<path d="M25.3 16.7C26.4046 16.7 27.3 15.8046 27.3 14.7C27.3 13.5954 26.4046 12.7 25.3 12.7C24.1954 12.7 23.3 13.5954 23.3 14.7C23.3 15.8046 24.1954 16.7 25.3 16.7Z" stroke="black" stroke-width="2" stroke-linecap="round" stroke-linejoin="round"/>
<path d="M29 20.7C29.8284 20.7 30.5 20.0284 30.5 19.2C30.5 18.3716 29.8284 17.7 29 17.7C28.1716 17.7 27.5 18.3716 27.5 19.2C27.5 20.0284 28.1716 20.7 29 20.7Z" stroke="black" stroke-width="2" stroke-linecap="round" stroke-linejoin="round"/>
<path d="M11.97 18.7C13.0746 18.7 13.97 17.8046 13.97 16.7C13.97 15.5954 13.0746 14.7 11.97 14.7C10.8654 14.7 9.97 15.5954 9.97 16.7C9.97 17.8046 10.8654 18.7 11.97 18.7Z" stroke="black" stroke-width="2" stroke-linecap="round" stroke-linejoin="round"/>
</svg>
