<svg width="54" height="54" viewBox="0 0 54 54" fill="none" xmlns="http://www.w3.org/2000/svg">
<circle cx="27.0002" cy="27" r="27" fill="#230608"/>
<path fill-rule="evenodd" clip-rule="evenodd" d="M31.3252 29.899L36.7052 35.279C36.8943 35.4682 37.0005 35.7248 37.0004 35.9924C37.0003 36.2599 36.8939 36.5164 36.7047 36.7055C36.5155 36.8946 36.2589 37.0008 35.9913 37.0007C35.7238 37.0006 35.4673 36.8942 35.2782 36.705L29.8982 31.325C28.2899 32.5707 26.2675 33.1569 24.2423 32.9644C22.2172 32.7718 20.3414 31.815 18.9967 30.2886C17.6519 28.7622 16.9392 26.7808 17.0034 24.7476C17.0677 22.7143 17.9041 20.7819 19.3426 19.3434C20.7811 17.905 22.7135 17.0685 24.7467 17.0043C26.78 16.94 28.7614 17.6527 30.2878 18.9975C31.8142 20.3422 32.771 22.218 32.9635 24.2431C33.1561 26.2683 32.5699 28.2907 31.3242 29.899H31.3252ZM25.0002 31C26.5915 31 28.1176 30.3679 29.2428 29.2426C30.3681 28.1174 31.0002 26.5913 31.0002 25C31.0002 23.4087 30.3681 21.8826 29.2428 20.7574C28.1176 19.6321 26.5915 19 25.0002 19C23.4089 19 21.8828 19.6321 20.7576 20.7574C19.6323 21.8826 19.0002 23.4087 19.0002 25C19.0002 26.5913 19.6323 28.1174 20.7576 29.2426C21.8828 30.3679 23.4089 31 25.0002 31V31Z" fill="white"/>
</svg>
