<svg width="54" height="54" viewBox="0 0 54 54" fill="none" xmlns="http://www.w3.org/2000/svg">
<circle cx="27" cy="27" r="27" fill="#230608"/>
<path d="M36 20.98C32.67 20.65 29.32 20.48 25.98 20.48C24 20.48 22.02 20.58 20.04 20.78L18 20.98" stroke="white" stroke-width="1.5" stroke-linecap="round" stroke-linejoin="round"/>
<path d="M23.5 19.97L23.72 18.66C23.88 17.71 24 17 25.69 17H28.31C30 17 30.13 17.75 30.28 18.67L30.5 19.97" stroke="white" stroke-width="1.5" stroke-linecap="round" stroke-linejoin="round"/>
<path d="M33.85 24.14L33.2 34.21C33.09 35.78 33 37 30.21 37H23.79C21 37 20.91 35.78 20.8 34.21L20.15 24.14" stroke="white" stroke-width="1.5" stroke-linecap="round" stroke-linejoin="round"/>
<path d="M25.33 31.5H28.66" stroke="white" stroke-width="1.5" stroke-linecap="round" stroke-linejoin="round"/>
<path d="M24.5 27.5H29.5" stroke="white" stroke-width="1.5" stroke-linecap="round" stroke-linejoin="round"/>
</svg>
