<svg width="40" height="40" viewBox="0 0 40 40" fill="none" xmlns="http://www.w3.org/2000/svg">
<rect width="40" height="40" rx="4" fill="#F5F5F7"/>
<path d="M14.1667 17.9417C13.8691 18.1847 13.4967 18.3174 13.1125 18.3174C12.7283 18.3174 12.3559 18.1847 12.0583 17.9417L11.85 17.775C11.6627 17.6186 11.5121 17.4229 11.4087 17.2019C11.3053 16.9809 11.2517 16.7398 11.2517 16.4958C11.2517 16.2518 11.3053 16.0108 11.4087 15.7898C11.5121 15.5687 11.6627 15.3731 11.85 15.2167C14.1454 13.3378 17.0342 12.3365 20 12.3917C22.9768 12.3352 25.8748 13.3495 28.1667 15.25C28.3511 15.4065 28.4992 15.6012 28.6008 15.8206C28.7024 16.0401 28.755 16.279 28.755 16.5208C28.755 16.7627 28.7024 17.0016 28.6008 17.221C28.4992 17.4405 28.3511 17.6352 28.1667 17.7917C28.1 17.8583 28.025 17.9083 27.9583 17.9667C27.6608 18.2097 27.2884 18.3424 26.9042 18.3424C26.52 18.3424 26.1476 18.2097 25.85 17.9667C24.2015 16.6371 22.1339 15.937 20.0167 15.9917C17.8969 15.926 15.8231 16.6173 14.1667 17.9417Z" stroke="black" stroke-width="2" stroke-linecap="round" stroke-linejoin="round"/>
<path d="M18.1333 22.1167C17.8538 22.28 17.5313 22.3547 17.2085 22.3309C16.8856 22.3071 16.5775 22.1859 16.325 21.9833C16.1225 21.8129 15.9635 21.5968 15.8611 21.3527C15.7588 21.1087 15.716 20.8437 15.7364 20.5799C15.7567 20.316 15.8396 20.0608 15.9782 19.8353C16.1168 19.6099 16.3071 19.4206 16.5333 19.2833C17.5936 18.6954 18.7877 18.3911 20 18.4C21.2152 18.3893 22.4124 18.6936 23.475 19.2833C23.7007 19.4214 23.8903 19.6111 24.0281 19.837C24.1659 20.0628 24.248 20.3182 24.2675 20.582C24.2871 20.8459 24.2435 21.1106 24.1405 21.3542C24.0375 21.5979 23.8779 21.8135 23.675 21.9833L23.575 22.0667C23.3442 22.2589 23.0579 22.3723 22.7581 22.3903C22.4582 22.4083 22.1605 22.3299 21.9083 22.1667C21.3281 21.833 20.6693 21.6604 20 21.6667C19.3497 21.6559 18.7073 21.8107 18.1333 22.1167Z" stroke="black" stroke-width="2" stroke-linecap="round" stroke-linejoin="round"/>
<path d="M20 27.6083C20.9435 27.6083 21.7083 26.8435 21.7083 25.9C21.7083 24.9565 20.9435 24.1917 20 24.1917C19.0565 24.1917 18.2917 24.9565 18.2917 25.9C18.2917 26.8435 19.0565 27.6083 20 27.6083Z" stroke="black" stroke-width="2" stroke-linecap="round" stroke-linejoin="round"/>
</svg>
